<?xml version="1.0" encoding="windows-1252"?>
<!-- Generator: Adobe Illustrator 16.0.0, SVG Export Plug-In . SVG Version: 6.00 Build 0)  -->
<!DOCTYPE svg PUBLIC "-//W3C//DTD SVG 1.1//EN" "http://www.w3.org/Graphics/SVG/1.1/DTD/svg11.dtd">
<svg version="1.1" id="Capa_1" xmlns="http://www.w3.org/2000/svg" xmlns:xlink="http://www.w3.org/1999/xlink" x="0px" y="0px" width="612px" height="612px" viewBox="0 0 612 612" style="enable-background:new 0 0 612 612;" xml:space="preserve">
<g>
	<path d="M602.602,84.043C587.209,52.069,554.525,30,516.688,30h-1.615H95.312h-4.836C39.108,30,0,72.73,0,123.315v2.087v60.247   v301.245C0,539.575,42.669,582,95.312,582h421.377C569.331,582,612,539.575,612,486.894V185.649v-60.247v-2.087   C612,109.294,608.589,95.988,602.602,84.043z M515.073,60c26.469,0,52.344,17.704,62.416,41.74   c0.054,0.137,0.109,0.304,0.161,0.441c0.114,0.279,0.266,0.579,0.377,0.859c2.537,6.971,3.973,14.512,3.973,22.361V171H30v-45.598   C30,89.354,59.294,60,95.312,60H515.073z M516.688,552H95.312C59.294,552,30,522.941,30,486.894V201h552v285.894   C582,522.941,552.706,552,516.688,552z"/>
	<path d="M108.725,135.344c9.401,0,17.026-7.635,17.026-17.045c0-9.421-7.625-17.046-17.026-17.046   c-9.411,0-17.025,7.625-17.025,17.046C91.7,127.709,99.314,135.344,108.725,135.344z"/>
	<path d="M165.491,135.344c9.401,0,17.026-7.635,17.026-17.045c0-9.421-7.625-17.046-17.026-17.046s-17.025,7.625-17.025,17.046   C148.465,127.709,156.09,135.344,165.491,135.344z"/>
	<path d="M222.246,135.344c9.411,0,17.036-7.635,17.036-17.045c0-9.421-7.625-17.046-17.036-17.046   c-9.4,0-17.025,7.625-17.025,17.046C205.221,127.709,212.846,135.344,222.246,135.344z"/>
	<path d="M267.655,323.609c-1.876-4.916-3.411-8.849-4.625-11.788c-1.204-2.939-2.699-5.688-4.465-8.247   c-1.756-2.559-4.073-4.666-6.942-6.281c-2.87-1.635-6.451-2.448-10.735-2.448c-4.224,0-7.775,0.812-10.635,2.448   c-2.869,1.615-5.187,3.752-6.953,6.381s-3.421,5.94-4.976,9.913c-1.565,3.983-2.89,7.395-4.003,10.233l-38.897,98.843   c-1.595,3.943-2.729,7.023-3.421,9.24c-0.692,2.218-1.043,4.364-1.043,6.441c0,3.592,1.485,6.812,4.465,9.651   c2.97,2.84,6.391,4.254,10.273,4.254c4.565,0,7.846-1.334,9.852-3.993c1.997-2.658,4.425-7.962,7.264-15.576L210.066,413h61.832   l7.264,19.27c0.974,2.357,2.127,5.145,3.481,8.225c1.345,3.08,2.609,5.406,3.783,6.891c1.174,1.485,2.628,2.688,4.354,3.552   c1.726,0.862,3.802,1.304,6.22,1.304c4.164,0,7.695-1.46,10.635-4.409c2.939-2.93,4.404-6.169,4.404-9.7   c0-3.391-1.545-8.827-4.655-16.301L267.655,323.609z M218.163,390l22.514-62.825L263.602,390H218.163z"/>
	<path d="M430.005,412.901c0.07-5.679,0.121-10.835,0.161-15.471c0.03-4.635,0.05-10.273,0.05-16.925   c0-10.515-1.475-18.962-4.414-25.333c-2.939-6.361-7.977-11.026-15.1-13.966c-7.113-2.939-16.905-4.414-29.346-4.414   c-11.146,0-20.437,1.524-27.911,4.574c-7.475,3.04-12.973,6.923-16.494,11.629c-3.531,4.705-5.287,9.551-5.287,14.527   c0,3.19,1.153,5.809,3.471,7.846c2.318,2.047,5.067,3.06,8.247,3.06c3.532,0,5.829-0.632,6.903-1.916   c1.063-1.284,2.899-3.933,5.498-7.946c2.598-4.013,5.698-7.022,9.34-9.029c3.622-2.007,9.04-3.01,16.233-3.01   c8.367,0,13.885,1.746,16.544,5.237c2.658,3.501,4.164,8.979,4.505,16.464c-5.939,1.726-11.458,3.2-16.544,4.414   c-5.077,1.204-11.177,2.538-18.3,3.993c-7.134,1.455-11.599,2.388-13.384,2.799c-8.588,1.876-15.33,5.538-20.236,11.006   s-7.364,12.08-7.364,19.835c0,5.749,1.485,11.076,4.465,15.992c2.97,4.916,7.203,8.809,12.711,11.679   c5.498,2.869,11.869,4.304,19.133,4.304c7.956,0,15.13-1.334,21.521-3.993c6.401-2.658,13.022-6.661,19.875-11.989   c3.17,5.188,6.18,9.15,9.02,11.889c2.829,2.729,5.709,4.094,8.618,4.094c3.451,0,6.552-1.194,9.271-3.582   c2.738-2.388,4.113-5.026,4.113-7.936c0-1.665-0.883-5.388-2.648-11.167C430.889,423.787,430.005,418.239,430.005,412.901z    M402,399.297c0,9.832-1.072,16.896-3.631,21.18c-2.217,3.883-5.587,7.053-10.332,9.511c-4.726,2.448-9.852,3.682-15.45,3.682   c-5.257,0-9.485-1.505-12.736-4.515s-4.863-6.661-4.863-10.955c0-4.154,1.392-7.385,4.159-9.702   c2.76-2.327,5.673-3.883,8.713-4.675c3.05-0.803,8.326-2.047,16.253-3.743c7.915-1.695,13.888-3.3,17.888-4.825V399.297z"/>
</g>
<g>
</g>
<g>
</g>
<g>
</g>
<g>
</g>
<g>
</g>
<g>
</g>
<g>
</g>
<g>
</g>
<g>
</g>
<g>
</g>
<g>
</g>
<g>
</g>
<g>
</g>
<g>
</g>
<g>
</g>
</svg>