<?xml version="1.0" encoding="windows-1252"?>
<!-- Generator: Adobe Illustrator 19.0.0, SVG Export Plug-In . SVG Version: 6.00 Build 0)  -->
<svg version="1.1" id="Layer_1" xmlns="http://www.w3.org/2000/svg" xmlns:xlink="http://www.w3.org/1999/xlink" x="0px" y="0px" viewBox="0 0 512 512" style="enable-background:new 0 0 512 512;" xml:space="preserve">
<g>
	<g>
		<path d="M371.2,281.6c-24.703,0-44.8,20.097-44.8,44.8c0,24.703,20.097,44.8,44.8,44.8c24.703,0,44.8-20.097,44.8-44.8    C416,301.697,395.903,281.6,371.2,281.6z"/>
	</g>
</g>
<g>
	<g>
		<path d="M204.8,64l-51.2-51.2H0v448c0,21.207,17.193,38.4,38.4,38.4h435.2c21.207,0,38.4-17.193,38.4-38.4V64H204.8z     M254.819,409.6l-37.308-83.2h-89.638l-37.134,83.2H48.687l123.814-277.416L296.902,409.6H254.819z M454.4,409.6H416v-13.148    c-12.942,8.308-28.312,13.148-44.8,13.148c-45.877,0-83.2-37.323-83.2-83.2c0-45.876,37.323-83.2,83.2-83.2    c16.488,0,31.858,4.84,44.8,13.147V243.2h38.4V409.6z"/>
	</g>
</g>
<g>
	<g>
		<polygon points="172.585,226.216 145.01,288 200.291,288   "/>
	</g>
</g>
<g>
</g>
<g>
</g>
<g>
</g>
<g>
</g>
<g>
</g>
<g>
</g>
<g>
</g>
<g>
</g>
<g>
</g>
<g>
</g>
<g>
</g>
<g>
</g>
<g>
</g>
<g>
</g>
<g>
</g>
</svg>