<?xml version="1.0" encoding="iso-8859-1"?>
<!-- Generator: Adobe Illustrator 19.1.0, SVG Export Plug-In . SVG Version: 6.00 Build 0)  -->
<svg version="1.1" id="Capa_1" xmlns="http://www.w3.org/2000/svg" xmlns:xlink="http://www.w3.org/1999/xlink" x="0px" y="0px"
	 viewBox="0 0 65 65" style="enable-background:new 0 0 65 65;" xml:space="preserve">
<g>
	<g id="group-20svg">
		<path id="path-1_11_" style="fill:#FF917B;" d="M65,53.016c0,4.422-3.582,8.006-8,8.006H15c-4.418,0-8-3.584-8-8.006V16.988
			c0-4.422,3.582-8.007,8-8.007h42c4.418,0,8,3.585,8,8.007V53.016z"/>
		<path id="path-2_11_" style="fill:#EDC951;" d="M65,21.992v-5.827c0-4.254-3.695-7.184-7.944-7.184H14.734
			C10.485,8.981,7,11.911,7,16.165v5.827H65z"/>
		<path id="path-3_11_" d="M51.5,59.021h-42c-5.238,0-9.5-4.266-9.5-9.508V13.485c0-5.242,4.262-9.507,9.5-9.507h42
			c5.238,0,9.5,4.265,9.5,9.507v36.028C61,54.755,56.738,59.021,51.5,59.021z M9.5,6.98C5.916,6.98,3,9.898,3,13.485v36.028
			c0,3.587,2.916,6.505,6.5,6.505h42c3.584,0,6.5-2.918,6.5-6.505V13.485c0-3.587-2.916-6.505-6.5-6.505H9.5z"/>
		<path id="path-4_11_" d="M59.5,20.991h-58c-0.828,0-1.5-0.672-1.5-1.501v-6.213c0-5.041,4.325-9.299,9.444-9.299h42.322
			c5.091,0,9.234,4.171,9.234,9.299v6.213C61,20.319,60.328,20.991,59.5,20.991z M3,17.988h55v-4.711
			c0-3.414-2.856-6.297-6.234-6.297H9.444C6.012,6.98,3,9.922,3,13.277V17.988z"/>
		<path id="path-5_11_" d="M12.961,12.777c0,0.938-0.76,1.699-1.697,1.699c-0.938,0-1.698-0.761-1.698-1.699s0.76-1.699,1.698-1.699
			C12.201,11.078,12.961,11.839,12.961,12.777z"/>
		<path id="path-6_11_" d="M18.619,12.777c0,0.938-0.76,1.699-1.697,1.699c-0.938,0-1.697-0.761-1.697-1.699
			s0.759-1.699,1.697-1.699C17.859,11.078,18.619,11.839,18.619,12.777z"/>
		<path id="path-7_11_" d="M24.276,12.777c0,0.938-0.759,1.699-1.697,1.699c-0.936,0-1.697-0.761-1.697-1.699
			s0.761-1.699,1.697-1.699C23.517,11.078,24.276,11.839,24.276,12.777z"/>
		<path id="path-8_10_" d="M28.252,44.085l-0.724-1.905h-6.163l-0.723,1.946c-0.284,0.759-0.525,1.271-0.724,1.536
			c-0.2,0.266-0.527,0.399-0.983,0.399c-0.386,0-0.727-0.142-1.023-0.424c-0.297-0.283-0.445-0.604-0.445-0.963
			c0-0.207,0.035-0.42,0.103-0.641c0.07-0.221,0.183-0.528,0.342-0.921l3.877-9.852c0.11-0.283,0.243-0.622,0.398-1.019
			c0.156-0.396,0.321-0.726,0.497-0.988c0.175-0.262,0.407-0.475,0.693-0.636c0.285-0.163,0.639-0.244,1.06-0.244
			c0.426,0,0.784,0.081,1.07,0.244c0.286,0.161,0.516,0.37,0.692,0.626c0.176,0.255,0.324,0.529,0.444,0.822
			c0.122,0.293,0.275,0.685,0.461,1.175l3.96,9.789c0.311,0.745,0.465,1.287,0.465,1.624c0,0.352-0.146,0.675-0.439,0.968
			s-0.646,0.44-1.06,0.44c-0.241,0-0.448-0.043-0.62-0.129c-0.173-0.087-0.317-0.204-0.434-0.352
			c-0.118-0.149-0.244-0.376-0.377-0.683C28.464,44.59,28.349,44.319,28.252,44.085z M22.172,39.873h4.529l-2.285-6.261
			L22.172,39.873z"/>
		<path id="path-9_10_" d="M40.723,44.467c-0.683,0.532-1.343,0.93-1.981,1.195c-0.638,0.266-1.352,0.399-2.145,0.399
			c-0.724,0-1.36-0.143-1.908-0.429c-0.548-0.287-0.97-0.675-1.266-1.165c-0.297-0.489-0.446-1.021-0.446-1.593
			c0-0.773,0.246-1.432,0.735-1.977c0.489-0.545,1.161-0.91,2.016-1.097c0.179-0.041,0.624-0.134,1.334-0.279
			s1.319-0.278,1.825-0.398c0.506-0.121,1.056-0.268,1.649-0.44c-0.034-0.745-0.184-1.292-0.449-1.641
			c-0.266-0.348-0.816-0.522-1.65-0.522c-0.716,0-1.256,0.1-1.618,0.3c-0.362,0.2-0.672,0.5-0.93,0.9
			c-0.259,0.4-0.442,0.664-0.548,0.792c-0.108,0.128-0.336,0.191-0.688,0.191c-0.317,0-0.592-0.101-0.822-0.305
			c-0.231-0.203-0.347-0.464-0.347-0.781c0-0.497,0.176-0.98,0.528-1.449c0.351-0.469,0.899-0.855,1.644-1.159
			c0.744-0.303,1.671-0.455,2.781-0.455c1.241,0,2.216,0.146,2.926,0.439c0.71,0.294,1.212,0.758,1.505,1.392
			c0.293,0.635,0.44,1.477,0.44,2.525c0,0.663-0.002,1.225-0.005,1.687c-0.004,0.462-0.009,0.976-0.016,1.542
			c0,0.531,0.088,1.085,0.264,1.661c0.176,0.576,0.263,0.947,0.263,1.112c0,0.29-0.136,0.554-0.409,0.792
			c-0.271,0.238-0.58,0.357-0.925,0.357c-0.29,0-0.576-0.137-0.858-0.409C41.339,45.38,41.039,44.985,40.723,44.467z M40.536,40.38
			c-0.413,0.151-1.015,0.312-1.804,0.481c-0.79,0.169-1.336,0.293-1.639,0.373c-0.303,0.079-0.593,0.234-0.868,0.465
			c-0.276,0.232-0.414,0.554-0.414,0.968c0,0.428,0.162,0.792,0.486,1.092c0.324,0.3,0.748,0.45,1.271,0.45
			c0.559,0,1.075-0.123,1.546-0.368c0.473-0.245,0.819-0.56,1.039-0.947c0.256-0.427,0.383-1.131,0.383-2.111V40.38z"/>
	</g>
</g>
<g>
</g>
<g>
</g>
<g>
</g>
<g>
</g>
<g>
</g>
<g>
</g>
<g>
</g>
<g>
</g>
<g>
</g>
<g>
</g>
<g>
</g>
<g>
</g>
<g>
</g>
<g>
</g>
<g>
</g>
</svg>
