<svg height="511pt" viewBox="-29 1 511 511.999" width="511pt" xmlns="http://www.w3.org/2000/svg"><path d="m315.5 504.5h-176.570312c-11.707032 0-21.230469-9.523438-21.230469-21.230469v-35.613281c0-11.707031 9.523437-21.230469 21.230469-21.230469h33.777343c3 0 5.441407-2.441406 5.441407-5.441406v-328.976563c0-3.003906-2.441407-5.445312-5.441407-5.445312h-58.382812c-20.949219 0-37.992188 17.042969-37.992188 37.992188v16.210937c0 11.707031-9.523437 21.230469-21.230469 21.230469h-25.703124c-11.707032 0-21.234376-9.523438-21.234376-21.230469v-112.035156c0-11.707031 9.527344-21.230469 21.234376-21.230469h395.636718c11.707032 0 21.230469 9.523438 21.230469 21.230469v112.035156c0 11.707031-9.523437 21.230469-21.230469 21.230469h-25.703125c-11.707031 0-21.234375-9.523438-21.234375-21.230469v-16.210937c0-20.949219-17.042968-37.992188-37.988281-37.992188h-58.386719c-3 0-5.441406 2.441406-5.441406 5.445312v328.976563c0 3 2.441406 5.441406 5.441406 5.441406h33.777344c11.707031 0 21.230469 9.523438 21.230469 21.230469v35.613281c0 11.707031-9.523438 21.230469-21.230469 21.230469zm0 0" fill="#b1dbfc"/><g fill="#8cc9f9"><path d="m38.164062 140.765625v-112.035156c0-11.707031 9.527344-21.230469 21.234376-21.230469h-30c-11.707032 0-21.234376 9.523438-21.234376 21.230469v112.035156c0 11.707031 9.527344 21.230469 21.234376 21.230469h25.703124c.722657 0 1.441407-.035156 2.148438-.109375-10.703125-1.078125-19.085938-10.140625-19.085938-21.121094zm0 0"/><path d="m172.707031 426.425781h30c3 0 5.441407-2.441406 5.441407-5.441406v-328.976563c0-3.003906-2.441407-5.445312-5.441407-5.445312h-30c3 0 5.441407 2.441406 5.441407 5.445312v328.976563c0 3-2.441407 5.441406-5.441407 5.441406zm0 0"/><path d="m147.699219 483.269531v-35.613281c0-11.707031 9.523437-21.230469 21.230469-21.230469h-30c-11.707032 0-21.230469 9.523438-21.230469 21.230469v35.613281c0 11.707031 9.523437 21.230469 21.230469 21.230469h30c-11.707032 0-21.230469-9.523438-21.230469-21.230469zm0 0"/></g><path d="m417.8125 32.265625h-381.191406c-2.039063 0-3.691406 1.652344-3.691406 3.6875v97.589844c0 2.035156 1.652343 3.6875 3.691406 3.6875h11.257812c2.035156 0 3.6875-1.652344 3.6875-3.6875v-5.300781c0-36.695313 29.75-66.445313 66.445313-66.445313h51.007812c18.71875 0 33.894531 15.175781 33.894531 33.894531v321.605469c0 18.71875-15.175781 33.894531-33.894531 33.894531h-22.867187c-2.035156 0-3.6875 1.652344-3.6875 3.691406v21.164063c0 2.035156 1.652344 3.6875 3.6875 3.6875h162.125c2.039062 0 3.6875-1.652344 3.6875-3.6875v-21.164063c0-2.039062-1.648438-3.691406-3.6875-3.691406h-22.867188c-18.71875 0-33.894531-15.175781-33.894531-33.894531v-321.601563c0-18.722656 15.175781-33.898437 33.894531-33.898437h51.007813c36.699219 0 66.445312 29.75 66.445312 66.445313v5.300781c0 2.039062 1.652344 3.6875 3.6875 3.6875h11.257813c2.039062 0 3.691406-1.648438 3.691406-3.6875v-97.589844c0-2.035156-1.652344-3.6875-3.6875-3.6875zm0 0" fill="#60b8fe"/><path d="m62.929688 35.953125c0-2.035156 1.652343-3.6875 3.691406-3.6875h-30c-2.039063 0-3.691406 1.652344-3.691406 3.6875v97.589844c0 2.035156 1.652343 3.6875 3.691406 3.6875h11.257812c2.035156 0 3.6875-1.652344 3.6875-3.6875.34375-2.613281-2.390625-22.136719 11.363282-42.476563zm0 0" fill="#0193fa"/><path d="m172.464844 476.046875v-21.164063c0-2.039062 1.652344-3.6875 3.6875-3.6875h22.867187c18.71875 0 33.894531-15.175781 33.894531-33.898437v-321.605469c0-18.71875-15.175781-33.894531-33.894531-33.894531h-30c18.71875 0 33.894531 15.175781 33.894531 33.894531v321.605469c0 18.71875-15.175781 33.894531-33.894531 33.894531h-22.867187c-2.035156 0-3.6875 1.652344-3.6875 3.691406v21.164063c0 2.035156 1.652344 3.6875 3.6875 3.6875h30c-2.035156 0-3.6875-1.652344-3.6875-3.6875zm0 0" fill="#0193fa"/><path d="m25.265625 32.265625v104.964844c0 4.140625 3.355469 7.5 7.5 7.5h18.632813c4.144531 0 7.5-3.359375 7.5-7.5v-12.675781c0-30.46875 24.789062-55.257813 55.257812-55.257813h58.386719c12.519531 0 22.707031 10.1875 22.707031 22.710937v328.976563c0 12.523437-10.1875 22.707031-22.707031 22.707031h-30.242188c-4.144531 0-7.5 3.359375-7.5 7.5v28.542969c0 4.140625 3.355469 7.5 7.5 7.5h169.5c4.140625 0 7.5-3.359375 7.5-7.5v-28.542969c0-4.140625-3.359375-7.5-7.5-7.5h-30.242187c-12.519532 0-22.710938-10.183594-22.710938-22.707031v-328.976563c0-12.523437 10.191406-22.710937 22.710938-22.710937h58.382812c30.46875 0 55.257813 24.789063 55.257813 55.257813v12.675781c0 4.140625 3.359375 7.5 7.5 7.5h18.636719c4.140624 0 7.5-3.359375 7.5-7.5v-104.964844c0-4.140625-3.359376-7.5-7.5-7.5h-388.570313c-4.144531 0-7.5 3.359375-7.5 7.5zm15 7.5h373.566406v89.964844h-3.632812v-5.175781c0-38.738282-31.519531-70.257813-70.257813-70.257813h-58.386718c-20.792969 0-37.707032 16.917969-37.707032 37.710937v328.976563c0 20.792969 16.914063 37.707031 37.707032 37.707031h22.742187v13.542969h-154.5v-13.542969h22.742187c20.792969 0 37.707032-16.914062 37.707032-37.707031v-328.976563c0-20.792968-16.914063-37.710937-37.707032-37.710937h-58.382812c-38.742188 0-70.257812 31.519531-70.257812 70.257813v5.175781h-3.636719v-89.964844zm0 0"/><path d="m399.164062 169.496094h25.703126c15.84375 0 28.730468-12.886719 28.730468-28.730469v-112.035156c0-15.839844-12.886718-28.730469-28.730468-28.730469h-180.316407c-4.144531 0-7.5 3.359375-7.5 7.5s3.355469 7.5 7.5 7.5h180.316407c7.574218 0 13.730468 6.160156 13.730468 13.730469v112.035156c0 7.570313-6.15625 13.730469-13.730468 13.730469h-25.703126c-7.570312 0-13.730468-6.160156-13.730468-13.730469v-16.210937c0-25.082032-20.40625-45.492188-45.492188-45.492188h-58.382812c-7.136719 0-12.941406 5.808594-12.941406 12.945312v148.066407c0 4.144531 3.355468 7.5 7.5 7.5 4.140624 0 7.5-3.355469 7.5-7.5v-146.011719h56.324218c16.8125 0 30.492188 13.679688 30.492188 30.492188v16.210937c0 15.84375 12.886718 28.730469 28.730468 28.730469zm0 0"/><path d="m209.550781 0h-180.320312c-15.84375 0-28.730469 12.890625-28.730469 28.730469v112.035156c0 15.84375 12.886719 28.730469 28.730469 28.730469h25.703125c15.84375 0 28.730468-12.886719 28.730468-28.730469v-16.210937c0-16.8125 13.679688-30.492188 30.492188-30.492188h56.324219v324.863281h-31.71875c-15.84375 0-28.730469 12.890625-28.730469 28.730469v35.613281c0 15.839844 12.890625 28.730469 28.730469 28.730469h176.570312c15.84375 0 28.730469-12.890625 28.730469-28.730469v-35.613281c0-15.839844-12.886719-28.730469-28.730469-28.730469h-31.71875v-143.851562c0-4.140625-3.355469-7.5-7.5-7.5s-7.5 3.359375-7.5 7.5v145.910156c0 7.136719 5.804688 12.941406 12.941407 12.941406h33.777343c7.570313 0 13.730469 6.160157 13.730469 13.730469v35.613281c0 7.570313-6.160156 13.730469-13.730469 13.730469h-176.570312c-7.570313 0-13.730469-6.160156-13.730469-13.730469v-35.613281c0-7.570312 6.160156-13.726562 13.730469-13.726562h33.777343c7.136719 0 12.941407-5.808594 12.941407-12.945313v-328.976563c0-7.136718-5.804688-12.945312-12.941407-12.945312h-58.382812c-25.085938 0-45.492188 20.410156-45.492188 45.492188v16.210937c0 7.574219-6.160156 13.730469-13.730468 13.730469h-25.703125c-7.570313 0-13.730469-6.160156-13.730469-13.730469v-112.035156c0-7.570313 6.160156-13.730469 13.730469-13.730469h180.320312c4.140625 0 7.5-3.359375 7.5-7.5s-3.359375-7.5-7.5-7.5zm0 0"/></svg>