<?xml version="1.0" encoding="windows-1252"?>
<!-- Generator: Adobe Illustrator 19.0.0, SVG Export Plug-In . SVG Version: 6.00 Build 0)  -->
<svg version="1.1" id="Layer_1" xmlns="http://www.w3.org/2000/svg" xmlns:xlink="http://www.w3.org/1999/xlink" x="0px" y="0px" viewBox="0 0 512 512" style="enable-background:new 0 0 512 512;" xml:space="preserve">
<path style="fill:#F8E99B;" d="M0,12.8v448c0,21.207,17.193,38.4,38.4,38.4h435.2c21.207,0,38.4-17.193,38.4-38.4V64H204.8  l-51.2-51.2H0z"/>
<path style="fill:#F6E27D;" d="M256,64v435.2h217.6c21.207,0,38.4-17.193,38.4-38.4V64H256z"/>
<path style="fill:#797781;" d="M416,243.2v13.147c-12.942-8.307-28.312-13.147-44.8-13.147c-45.876,0-83.2,37.324-83.2,83.2  s37.324,83.2,83.2,83.2c16.488,0,31.858-4.84,44.8-13.148V409.6h38.4V243.2H416z M371.2,371.2c-24.703,0-44.8-20.097-44.8-44.8  s20.097-44.8,44.8-44.8c24.703,0,44.8,20.097,44.8,44.8S395.903,371.2,371.2,371.2z"/>
<path style="fill:#88888F;" d="M90.738,409.6l31.42-70.4h101.091l31.569,70.4h42.084L172.5,132.184L48.687,409.6H90.738z   M172.585,226.216L206.03,300.8h-66.733L172.585,226.216z"/>
<polygon style="fill:#797781;" points="256,318.386 256,409.6 296.902,409.6 "/>
<g>
</g>
<g>
</g>
<g>
</g>
<g>
</g>
<g>
</g>
<g>
</g>
<g>
</g>
<g>
</g>
<g>
</g>
<g>
</g>
<g>
</g>
<g>
</g>
<g>
</g>
<g>
</g>
<g>
</g>
</svg>